<svg width="99" height="80" viewBox="0 0 99 80" fill="none" xmlns="http://www.w3.org/2000/svg">
<path d="M5.41318 64.2703L0.985107 79.7826H2.51844L3.6202 75.8457H9.23073L10.3325 79.7826H11.8693L7.44125 64.2703H5.41318ZM6.41669 65.8282L8.8588 74.565H3.97458L6.41669 65.8282Z" fill="#191919"/>
<path d="M18.4623 64.0349H17.0833V76.8314L16.9675 79.7823H18.1079L18.3044 78.3648C18.8553 79.27 19.8202 79.9998 21.4131 79.9998C24.2693 79.9998 25.4096 77.6946 25.4096 74.8033V74.3297C25.4096 71.4349 24.2693 69.1332 21.4131 69.1332C19.957 69.1332 19.0131 69.7647 18.4623 70.5507V64.0349ZM18.4623 71.9858C18.8763 71.2981 19.6833 70.3718 21.1009 70.3718C23.0693 70.3718 23.9921 71.9086 23.9921 74.3297V74.8033C23.9921 77.2244 23.0693 78.7577 21.1009 78.7577C19.6833 78.7577 18.8763 77.8349 18.4623 77.1437V71.9858Z" fill="#191919"/>
<path d="M34.8379 78.8386C32.7712 78.8386 32.1993 77.7368 32.1993 76.593H30.8238V76.6737C30.8238 78.2666 31.887 80 34.8379 80C37.4168 80 38.8554 78.7403 38.8554 76.9298V76.8316C38.8554 74.9193 37.7326 74.1719 35.1151 73.9544C32.8519 73.7789 32.3396 73.1894 32.3396 72.1052C32.3396 70.9438 33.2624 70.2947 34.8379 70.2947C36.7888 70.2947 37.3782 71.221 37.3782 72.7158H38.7361V72.6386C38.7361 70.5894 37.694 69.1333 34.8379 69.1333C32.3993 69.1333 30.9607 70.2947 30.9607 72.1052V72.2245C30.9607 73.7789 31.7677 74.7614 34.5817 75C36.6098 75.1754 37.4379 75.5123 37.4379 76.9298C37.4379 78.0912 36.5326 78.8386 34.8379 78.8386Z" fill="#191919"/>
<path d="M46.9628 69.3509V66.3965H45.5839V69.3509H43.9313V70.5895H45.5839V76.8877C45.5839 79.1509 46.8646 80 48.6365 80C49.4611 80 49.9348 79.8421 50.0927 79.7825V78.5825C49.9348 78.6597 49.4014 78.7579 48.9699 78.7579C47.6506 78.7579 46.9628 78.3649 46.9628 76.7123V70.5895H50.2892V69.3509H46.9628Z" fill="#191919"/>
<path d="M59.9722 69.1333C58.5757 69.1333 57.6108 69.8631 57.06 70.7263L56.8635 69.3508H55.7231L55.8389 72.3017V79.7824H57.2179V72.0456C57.6494 71.3579 58.4179 70.4701 59.9933 70.4701H60.267V69.1544C60.2494 69.1544 60.1126 69.1333 59.9722 69.1333Z" fill="#191919"/>
<path d="M72.2381 79.7824H73.3784L73.2591 76.8316V73.0105C73.2591 70.7087 72.3749 69.1333 69.4802 69.1333C66.41 69.1333 65.7223 71.0421 65.7223 72.6175V72.793H67.0416C67.0416 71.4351 67.4942 70.2947 69.4626 70.2947C71.3118 70.2947 71.8837 71.221 71.8837 73.0105V73.2877L68.7328 73.7789C67.0416 74.0351 65.3258 74.6842 65.3258 76.9473V77.1438C65.3258 78.8175 66.4311 80 68.3398 80C70.1504 80 71.3293 79.2316 72.0205 78.3263L72.2381 79.7824ZM68.6942 78.8C67.2942 78.8 66.7047 77.9509 66.7047 77.028V76.8491C66.7047 75.6701 67.5118 75.0175 68.8521 74.7824L71.8837 74.2912V77.1438C71.5083 77.7544 70.624 78.8 68.6942 78.8Z" fill="#191919"/>
<path d="M80.2264 74.8035V74.3298C80.2264 71.9473 81.1317 70.3719 83.1984 70.3719C85.0896 70.3719 85.858 71.5754 85.858 73.1684H87.1773V72.7754C87.1773 71.0807 86.0545 69.1333 83.1808 69.1333C80.1282 69.1333 78.83 71.4351 78.83 74.3298V74.8035C78.83 77.6947 80.1282 80 83.1808 80C86.0545 80 87.1773 78.1298 87.1773 76.4772V76.1614H85.858C85.858 77.5193 85.1493 78.7579 83.1984 78.7579C81.1317 78.7579 80.2264 77.1824 80.2264 74.8035Z" fill="#191919"/>
<path d="M95.1277 69.3509V66.3965H93.7488V69.3509H92.0962V70.5895H93.7488V76.8877C93.7488 79.1509 95.0295 80 96.8014 80C97.626 80 98.0997 79.8421 98.2576 79.7825V78.5825C98.0997 78.6597 97.5663 78.7579 97.1348 78.7579C95.8155 78.7579 95.1277 78.3649 95.1277 76.7123V70.5895H98.4541V69.3509H95.1277Z" fill="#191919"/>
<path d="M71.2571 43.7825H72.5975V45.1193H71.2571V43.7825Z" fill="#191919"/>
<path d="M27.4781 1.35425H28.8325V43.7824H27.4781V1.35425Z" fill="#191919"/>
<path d="M27.4781 43.7825H28.8325V45.1193H27.4781V43.7825Z" fill="#191919"/>
<path d="M71.2571 1.35425H72.5975V43.7824H71.2571V1.35425Z" fill="#191919"/>
<path d="M28.8325 43.7825H71.2571V45.1193H28.8325V43.7825Z" fill="#191919"/>
<path d="M71.2571 0H72.5975V1.35439H71.2571V0Z" fill="#191919"/>
<path d="M27.4781 0H28.8325V1.35439H27.4781V0Z" fill="#191919"/>
<path d="M28.8325 0H71.2571V1.35439H28.8325V0Z" fill="#191919"/>
<path d="M33.4781 6.00366H66.2852V38.8072H33.4781V6.00366Z" fill="#191919"/>
<path d="M43.0886 20.8596H56.8535V23.9193H43.0886V20.8596Z" fill="#FDFBF5"/>
</svg>
