<svg width="86" height="80" viewBox="0 0 86 80" fill="none" xmlns="http://www.w3.org/2000/svg">
<path d="M0.0594482 67.8347H1.39668V57.1907H0.0594482V67.8347Z" fill="#191919"/>
<path d="M14.5199 57.1907V65.4018L8.55856 57.1907H7.3429V67.8347H8.65089V59.5328L14.7015 67.8347H15.8264V57.1907H14.5199Z" fill="#191919"/>
<path d="M28.9035 57.1907L25.5135 65.8434L22.0757 57.1907H20.6016L24.9041 67.8347H26.1367L30.3638 57.1907H28.9035Z" fill="#191919"/>
<path d="M35.1844 67.8347H36.5217V57.1907H35.1844V67.8347Z" fill="#191919"/>
<path d="M45.6457 67.9718C47.7585 67.9718 49.402 66.8316 49.402 64.8234C49.402 62.6045 47.5154 62.1628 45.8427 61.752C44.4747 61.4334 43.2436 61.1287 43.2436 59.9731C43.2436 58.9544 44.2162 58.3466 45.5088 58.3466C46.8014 58.3466 47.7739 59.0313 47.7739 60.2162H49.0973C49.0973 58.2865 47.7447 57.0693 45.5395 57.0693C43.3344 57.0693 41.9202 58.1788 41.9202 60.0192C41.9202 62.1474 43.7299 62.5891 45.3718 62.9692C46.7552 63.3031 48.017 63.5924 48.017 64.8388C48.017 65.9652 46.9691 66.6639 45.6303 66.6639C44.1561 66.6639 43.0759 65.8883 43.0759 64.5664H41.7079C41.7079 66.6639 43.3036 67.9718 45.6457 67.9718Z" fill="#191919"/>
<path d="M54.5868 67.8347H55.924V57.1907H54.5868V67.8347Z" fill="#191919"/>
<path d="M66.7201 68.0178C69.944 68.0178 72.2845 65.6603 72.2845 62.5273C72.2845 59.3804 69.944 57.0229 66.7201 57.0229C63.4963 57.0229 61.1389 59.3804 61.1389 62.5273C61.1389 65.6603 63.4963 68.0178 66.7201 68.0178ZM66.7201 66.7098C64.3027 66.7098 62.5084 64.9001 62.5084 62.5273C62.5084 60.1406 64.3027 58.3309 66.7201 58.3309C69.1376 58.3309 70.9319 60.1252 70.9319 62.5273C70.9319 64.9155 69.1376 66.7098 66.7201 66.7098Z" fill="#191919"/>
<path d="M84.6935 57.1907V65.4018L78.7321 57.1907H77.5165V67.8347H78.8245V59.5328L84.8751 67.8347H86V57.1907H84.6935Z" fill="#191919"/>
<path d="M20.7152 79.5492C21.5493 79.5492 22.1986 79.0999 22.1986 78.3074C22.1986 77.4302 21.4538 77.2563 20.7937 77.0932C20.2536 76.9671 19.7673 76.847 19.7673 76.3915C19.7673 75.9899 20.1505 75.7483 20.6614 75.7483C21.1722 75.7483 21.5554 76.0191 21.5554 76.4869H22.0786C22.0786 75.7252 21.5431 75.2451 20.6737 75.2451C19.8027 75.2451 19.2441 75.6837 19.2441 76.41C19.2441 77.2502 19.9581 77.4241 20.6075 77.5749C21.1538 77.7057 21.6524 77.8196 21.6524 78.312C21.6524 78.7567 21.2369 79.0337 20.7091 79.0337C20.1274 79.0337 19.7011 78.7275 19.7011 78.2043H19.161C19.161 79.0337 19.7904 79.5492 20.7152 79.5492Z" fill="#191919"/>
<path d="M32.0381 80L31.221 79.0567C31.6842 78.6612 31.9596 78.078 31.9596 77.3994C31.9596 76.1575 31.0348 75.2266 29.7622 75.2266C28.4896 75.2266 27.5586 76.1575 27.5586 77.3994C27.5586 78.6366 28.4896 79.5676 29.7622 79.5676C30.1469 79.5676 30.507 79.4829 30.8132 79.3275L31.3902 80H32.0381ZM29.7622 79.0505C28.8081 79.0505 28.1003 78.3365 28.1003 77.3994C28.1003 76.4576 28.8081 75.7436 29.7622 75.7436C30.7178 75.7436 31.4256 76.4515 31.4256 77.3994C31.4256 77.9103 31.2148 78.355 30.8732 78.6489L30.1161 77.7718H29.4744L30.4593 78.9136C30.2484 79.0028 30.0145 79.0505 29.7622 79.0505Z" fill="#191919"/>
<path d="M39.2301 79.5676C40.1734 79.5676 40.8751 78.8889 40.8751 77.9349V75.2927H40.3473V77.8918C40.3473 78.5889 39.8795 79.0505 39.2301 79.0505C38.5761 79.0505 38.1145 78.5889 38.1145 77.8918V75.2927H37.579V77.9349C37.579 78.8889 38.2822 79.5676 39.2301 79.5676Z" fill="#191919"/>
<path d="M49.712 79.4952H50.2829L48.5179 75.2927H48.0255L46.3082 79.4952H46.8668L47.2745 78.4919H49.2981L49.712 79.4952ZM48.2779 76.019L49.1011 78.0057H47.4731L48.2779 76.019Z" fill="#191919"/>
<path d="M58.2135 79.4952H58.809L57.7995 77.7902C58.3519 77.6348 58.7305 77.1716 58.7305 76.5776C58.7305 75.8328 58.1488 75.2927 57.3609 75.2927H55.7652V79.4952H56.293V77.8564H57.2471L58.2135 79.4952ZM56.293 75.7975H57.3317C57.8472 75.7975 58.1904 76.1268 58.1904 76.5776C58.1904 77.027 57.8472 77.3517 57.3317 77.3517H56.293V75.7975Z" fill="#191919"/>
<path d="M64.9623 78.9905V77.5794H66.655V77.0931H64.9623V75.7975H66.8119V75.2927H64.4344V79.4952H66.8781V78.9905H64.9623Z" fill="#191919"/>
<path d="M23.9387 3.44238H33.958L32.6407 4.72268H24.5789V12.7753L23.2986 14.1018V3.44238H23.9387ZM37.6034 3.44238H48.4582L49.7385 4.72268H36.3231L37.6034 3.44238ZM52.1406 3.44238H62.8V14.1018L61.4828 12.7845V4.72268H53.4301L52.1406 3.44238ZM62.8 17.7488V28.602L61.4828 29.8823V16.4685L62.8 17.7488ZM62.8 32.2859V42.9453H52.1406L53.4209 41.6281H61.4735V33.5755L62.8 32.2859ZM48.4582 42.9453H37.6034L36.3231 41.6281H49.7385L48.4582 42.9453ZM33.958 42.9453H23.2986V32.2859L24.5789 33.5662V41.6189H32.6315L33.958 42.9453ZM23.2986 28.602V17.7488L24.5789 16.4685V29.8823L23.2986 28.602Z" fill="#191919"/>
<path d="M47.9743 0.204663L66.2415 18.4719V27.9249L47.7711 46.3861H38.3259L19.8555 27.9157C19.8555 24.7519 19.8555 21.5896 19.8555 18.4627C25.9877 12.3028 32.1568 6.13372 38.3259 0H47.7804L47.9743 0.204663ZM64.9243 18.9905L47.2141 1.28029H38.846L21.1358 18.9905V27.3586L38.8368 45.0596H47.2048L64.9058 27.3586V18.9905H64.9243Z" fill="#191919"/>
<path d="M43.4848 3.88864L48.1705 8.57279H46.3239L43.0493 5.25203L39.7285 8.57279H37.9281L43.0493 3.44238L43.4848 3.88864ZM50.7772 11.1795L55.0628 15.4667V17.2656L48.9306 11.1795H50.7772ZM57.6696 18.0642L62.8 23.1931L57.6696 28.3235V26.4785L60.9549 23.1931L57.6696 19.8723V18.0642ZM55.0628 30.921L50.7772 35.2082H48.9306L55.0628 29.076V30.921ZM48.1797 37.8149L43.0493 42.9453L37.9189 37.8149H39.7193L43.0493 41.0987L46.3331 37.8149H48.1797ZM35.3214 35.2082L31.0358 30.921V29.076L37.1218 35.2082H35.3214ZM28.429 28.3235L23.2986 23.1931L28.429 18.0642V19.8631L25.1067 23.1931L28.429 26.4785V28.3235ZM31.0358 15.4667L35.3214 11.1795H37.1218L31.0358 17.2656V15.4667Z" fill="#191919"/>
<path d="M56.9919 14.2602V32.369L52.4185 36.9701L51.9369 37.1286H34.1143L33.6788 36.9701L29.0685 32.3598V13.9817L33.8358 9.21289H52.2231L56.9919 13.9817V14.2602ZM55.7024 31.8489V14.5387L51.6953 10.4932H34.3928L30.3488 14.5387V31.8396L34.3928 35.8483H51.6953L55.7024 31.8489Z" fill="#191919"/>
<path d="M43.4842 9.93617L48.4115 14.8635L43.0487 20.2709L37.6398 14.8635L43.0487 9.49146L43.4842 9.93617ZM46.6111 14.8635L43.0487 11.2534L39.4402 14.8635L43.0487 18.472L46.6111 14.8635Z" fill="#191919"/>
<path d="M56.3056 23.6301L51.3429 28.5558L45.9709 23.193L51.3429 17.7856L56.7503 23.193L56.3056 23.6301ZM51.3429 26.8031L54.9514 23.193L51.3429 19.5845L47.7713 23.193L51.3429 26.8031Z" fill="#191919"/>
<path d="M42.6135 36.4514L37.6493 31.4872L43.0582 26.1167L48.4302 31.4872L43.049 36.8961L42.6135 36.4514ZM39.4405 31.4872L43.049 35.0957L46.6114 31.4872L43.049 27.9156L39.4405 31.4872Z" fill="#191919"/>
<path d="M29.7917 22.7576L34.7175 17.7949L40.1264 23.2039L34.7175 28.5743L29.3455 23.1931L29.7917 22.7576ZM34.7175 19.5846L31.1089 23.1931L34.7175 26.8031L38.326 23.1931L34.7175 19.5846Z" fill="#191919"/>
<path d="M43.4842 18.8705L47.8083 23.193L43.0487 27.9618L38.2799 23.193L43.0487 18.4258L43.4842 18.8705ZM46.0171 23.193L43.0487 20.2247L40.0803 23.193L43.0487 26.1629L46.0171 23.193Z" fill="#191919"/>
</svg>
