<svg width="148" height="42" viewBox="0 0 148 42" fill="none" xmlns="http://www.w3.org/2000/svg">
<path fill-rule="evenodd" clip-rule="evenodd" d="M0.54834 0H147.965V42H0.54834V0ZM2.54834 2V40H145.965V2H2.54834Z" fill="#191919"/>
<path d="M5.47836 4.76294H74.2262V37.263H5.47836V4.76294Z" fill="#191919"/>
<path d="M14.1835 26.5019H15.4639L19.802 15.5796H18.3502L16.5251 20.1825L14.8237 24.5206L13.1071 20.1825L11.2972 15.5796H9.83023L14.1835 26.5019Z" fill="#FDFBF5"/>
<path d="M22.8403 26.5019H24.214V15.5796H22.8403V26.5019Z" fill="#FDFBF5"/>
<path d="M32.2185 26.7039C34.6056 26.7039 36.1508 25.5342 36.1508 23.6309C36.1508 22.0229 35.0744 21.0572 32.2814 20.3692C30.159 19.8549 29.4559 19.2928 29.4559 18.3879C29.4559 17.3419 30.3934 16.6865 31.9537 16.6865C33.5596 16.6865 34.5579 17.4981 34.5904 18.8089H35.9468C35.9316 16.6865 34.4016 15.3757 31.9537 15.3757C29.5644 15.3757 28.0518 16.5476 28.0518 18.3879C28.0518 20.0741 29.2541 21.0094 31.9364 21.6496C33.9025 22.1162 34.7293 22.6631 34.7293 23.6787C34.7293 24.7551 33.7636 25.3931 32.2185 25.3931C30.5171 25.3931 29.3322 24.5511 29.2996 23.147H27.9259C27.9433 25.2846 29.6121 26.7039 32.2185 26.7039Z" fill="#FDFBF5"/>
<path d="M39.8599 26.5019H41.2336V15.5796H39.8599V26.5019Z" fill="#FDFBF5"/>
<path d="M50.5638 26.7039C53.8884 26.7039 56.2278 24.3645 56.2278 21.0398C56.2278 17.7173 53.8884 15.3757 50.5638 15.3757C47.2391 15.3757 44.9149 17.7173 44.9149 21.0398C44.9149 24.3645 47.2391 26.7039 50.5638 26.7039ZM46.319 21.0398C46.319 18.4964 48.0507 16.7494 50.5638 16.7494C53.0768 16.7494 54.8086 18.4964 54.8086 21.0398C54.8086 23.5832 53.0768 25.3323 50.5638 25.3323C48.0507 25.3323 46.319 23.5832 46.319 21.0398Z" fill="#FDFBF5"/>
<path d="M59.8898 26.5019H61.2483V17.9516L67.2878 26.5019H68.5661V15.5796H67.2249V24.1299L61.1854 15.5796H59.8898V26.5019Z" fill="#FDFBF5"/>
<path d="M84.2785 26.4038C86.9933 26.4038 88.5992 25.1234 88.5992 22.9706C88.5992 21.1607 87.4295 20.0995 84.7776 19.5071C83.3735 19.1946 82.8592 18.8517 82.8592 18.2896C82.8592 17.7579 83.3258 17.4302 84.0593 17.4302C84.9338 17.4302 85.433 17.8838 85.433 18.7106H88.3974C88.3974 16.4645 86.6808 15.0127 83.9963 15.0127C81.4226 15.0127 79.8318 16.2931 79.8318 18.3525C79.8318 20.1928 81.0319 21.3321 83.4972 21.8009C84.8232 22.0656 85.4634 22.4715 85.4634 23.0965C85.4634 23.6412 84.9968 23.9537 84.2307 23.9537C83.3258 23.9537 82.7963 23.4697 82.7963 22.6277H79.7537C79.7537 24.9845 81.4378 26.4038 84.2785 26.4038Z" fill="#191919"/>
<path d="M92.9378 26.1694H96.0736V18.1637H99.3983V15.2471H89.6131V18.1637H92.9378V26.1694Z" fill="#191919"/>
<path d="M105.684 26.4038C108.633 26.4038 110.461 24.6091 110.461 21.675V15.2471H107.323V21.4732C107.323 22.7688 106.778 23.4545 105.684 23.4545C104.593 23.4545 104.046 22.7688 104.046 21.4732V15.2471H100.895V21.675C100.895 24.6091 102.735 26.4038 105.684 26.4038Z" fill="#191919"/>
<path d="M112.69 26.1694H117.326C120.852 26.1694 123.192 24.0014 123.192 20.7071C123.192 17.4302 120.852 15.2471 117.326 15.2471H112.69V26.1694ZM115.841 23.346V18.0704H117.23C118.901 18.0704 119.978 19.1012 119.978 20.7071C119.978 22.3152 118.901 23.346 117.23 23.346H115.841Z" fill="#191919"/>
<path d="M124.876 26.1694H128.027V15.2471H124.876V26.1694Z" fill="#191919"/>
<path d="M135.658 26.4038C139.137 26.4038 141.602 24.047 141.602 20.7071C141.602 17.3695 139.137 15.0127 135.658 15.0127C132.18 15.0127 129.712 17.3695 129.712 20.7071C129.712 24.047 132.18 26.4038 135.658 26.4038ZM132.911 20.7071C132.911 19.0687 134.05 17.9315 135.658 17.9315C137.282 17.9315 138.404 19.0687 138.404 20.7071C138.404 22.3456 137.282 23.4849 135.658 23.4849C134.05 23.4849 132.911 22.3456 132.911 20.7071Z" fill="#191919"/>
</svg>
