<svg width="80" height="80" viewBox="0 0 80 80" fill="none" xmlns="http://www.w3.org/2000/svg">
<path d="M39.9995 80C29.3202 80 19.2643 75.8425 11.7187 68.2813C4.15643 60.7347 0 50.6788 0 39.9995C0 29.3202 4.15643 19.2643 11.7187 11.7187C19.2643 4.15643 29.3202 0 39.9995 0C50.6788 0 60.7347 4.15643 68.2803 11.7187C75.8425 19.2799 79.999 29.3202 79.999 39.9995C79.999 50.6788 75.8425 60.7347 68.2803 68.2813C60.7347 75.8425 50.6788 80 39.9995 80ZM39.9995 2.39774C29.9592 2.39774 20.5111 6.31439 13.4127 13.4127C6.31439 20.5111 2.39774 29.9603 2.39774 39.9995C2.39774 50.0397 6.31439 59.4879 13.4127 66.5862C20.5111 73.6846 29.9592 77.6012 39.9995 77.6012C50.0397 77.6012 59.4879 73.6846 66.5862 66.5862C73.6846 59.4879 77.6012 50.0397 77.6012 39.9995C77.6012 29.9603 73.6846 20.5111 66.5862 13.4127C59.4879 6.31439 50.0397 2.39774 39.9995 2.39774Z" fill="#191919"/>
<path d="M48.1811 22.6649C48.0195 22.5148 47.7672 22.5242 47.6171 22.6858L44.377 26.1833L44.155 25.979L47.3961 22.4814C47.5462 22.3198 47.5368 22.0676 47.3752 21.9174C47.2137 21.7673 46.9614 21.7767 46.8102 21.9383L43.5701 25.4369L43.3491 25.2315L46.5902 21.734C46.7393 21.5724 46.7299 21.3201 46.5684 21.17C46.4078 21.0209 46.1545 21.0303 46.0044 21.1919L42.7643 24.6894L42.5433 24.4841L45.7834 20.9875C45.9335 20.8249 45.9241 20.5726 45.7625 20.4225C45.6009 20.2734 45.3486 20.2828 45.1985 20.4444L41.9584 23.942L41.9564 23.9409L41.8552 24.0462C41.7656 24.1442 41.6843 24.2422 41.6113 24.3423L41.6082 24.3454C41.334 24.7176 41.1776 25.1054 41.1787 25.5578C41.1797 26.0342 41.3465 26.4836 41.6509 26.8536C41.4466 27.0705 40.5344 27.9597 39.4356 29.0262C38.1221 27.6303 36.9618 26.3908 36.7282 26.1187C37.0681 25.7423 37.2683 25.2732 37.2922 24.7697C37.3152 24.2891 37.1682 23.8711 36.8971 23.4645H36.8982L36.893 23.4593C36.821 23.3498 36.7397 23.2424 36.6501 23.134L36.5479 23.0183L36.5458 23.0194L36.1486 22.6044C33.9594 20.6925 32.871 20.5267 32.2341 21.073C31.4876 21.7121 31.2343 22.8234 32.9085 25.3879L33.2765 25.8789L33.2776 25.88L33.3172 25.9279C33.7655 26.4711 34.1971 26.7786 34.8184 26.8568C35.2906 26.9152 35.7577 26.814 36.1705 26.5732C36.403 26.8557 37.4601 28.2412 38.6412 29.7956C37.017 31.3687 35.2615 33.0638 34.8059 33.5162C34.4858 33.8217 34.3097 34.0291 34.3097 34.0291C33.999 34.3638 34.0209 34.8892 34.3587 35.2019C34.6964 35.5157 35.2218 35.497 35.5325 35.1623C35.5325 35.1623 35.7525 34.9299 35.9453 34.7036L35.9464 34.7047C36.2299 34.3784 37.8124 32.48 39.3136 30.6806C40.721 32.5363 42.1179 34.3805 42.3848 34.7161V34.7141C42.5787 34.9632 42.7997 35.2207 42.7997 35.2207C43.1125 35.5918 43.6681 35.6367 44.0413 35.3218C44.4146 35.006 44.4636 34.4503 44.1508 34.0813C44.1508 34.0813 43.9746 33.8519 43.6504 33.5131C43.2209 33.045 41.6467 31.376 40.1028 29.7361C41.1088 28.5352 41.9522 27.5323 42.1565 27.3071C42.5339 27.5521 42.9697 27.6678 43.4169 27.6324C44.0059 27.5865 44.425 27.3165 44.8712 26.8245L44.9108 26.7796L44.9129 26.7786L48.203 23.2279C48.3521 23.0663 48.3427 22.814 48.1811 22.6649Z" fill="#191919"/>
<path d="M28.1078 40.3799C28.9188 40.3799 29.6308 40.5821 30.2428 40.9845L29.7257 42.0604C29.4422 41.8936 29.1377 41.7581 28.8125 41.6517C28.4872 41.5464 28.2131 41.4933 27.991 41.4933C27.5928 41.4933 27.3947 41.6257 27.3947 41.8894C27.3947 42.0593 27.4916 42.1959 27.6866 42.2981C27.8836 42.4013 28.1224 42.4899 28.4038 42.565C28.6874 42.64 28.9689 42.7307 29.2503 42.836C29.5308 42.9423 29.7685 43.1143 29.9634 43.3531C30.1604 43.5897 30.2595 43.8889 30.2595 44.2496C30.2595 44.7698 30.0551 45.1754 29.6465 45.4673C29.2399 45.7592 28.7218 45.9051 28.0911 45.9051C27.6428 45.9051 27.1998 45.829 26.7609 45.6758C26.3209 45.5204 25.9404 45.3078 25.6183 45.0377L26.152 43.9786C26.4241 44.2152 26.7452 44.4102 27.1153 44.5624C27.4875 44.7156 27.818 44.7917 28.1078 44.7917C28.3298 44.7917 28.5018 44.7521 28.6248 44.6708C28.7499 44.5905 28.8125 44.4738 28.8125 44.3205C28.8125 44.1704 28.7416 44.0453 28.5998 43.9452C28.458 43.843 28.2808 43.768 28.0702 43.72C27.8586 43.67 27.6293 43.6054 27.3822 43.524C27.1341 43.4406 26.9037 43.351 26.69 43.253C26.4783 43.1529 26.3022 42.9965 26.1604 42.7818C26.0186 42.5681 25.9477 42.3127 25.9477 42.0145C25.9477 41.5172 26.1447 41.1211 26.5399 40.8261C26.9339 40.529 27.4572 40.3799 28.1078 40.3799Z" fill="#191919"/>
<path d="M36.426 40.4424V43.5824C36.426 44.2996 36.2029 44.8699 35.7588 45.2921C35.3168 45.7122 34.7163 45.9217 33.9574 45.9217C33.1922 45.9217 32.5854 45.7122 32.1351 45.2921C31.6847 44.8699 31.4595 44.2996 31.4595 43.5824V40.4424H32.8356V43.5824C32.8356 43.9441 32.9399 44.2319 33.1484 44.4456C33.3569 44.6603 33.629 44.7667 33.9657 44.7667C34.2962 44.7667 34.5599 44.6614 34.758 44.4497C34.9581 44.2391 35.0582 43.9493 35.0582 43.5824V40.4424H36.426Z" fill="#191919"/>
<path d="M37.9581 40.4424H40.3183C41.0106 40.4424 41.5464 40.6071 41.9279 40.9344C42.3085 41.2628 42.4992 41.7288 42.4992 42.3314C42.4992 42.9652 42.3085 43.4573 41.9279 43.8076C41.5464 44.1578 41.0106 44.333 40.3183 44.333H39.3342V45.8592H37.9581V40.4424ZM39.3342 41.5266V43.2529H40.2474C40.5529 43.2529 40.7875 43.1779 40.9522 43.0278C41.119 42.8777 41.2024 42.6608 41.2024 42.3773C41.2024 42.0999 41.119 41.8883 40.9522 41.7434C40.7875 41.5996 40.5529 41.5266 40.2474 41.5266H39.3342Z" fill="#191919"/>
<path d="M48.002 41.5266H45.1373V42.6024H47.7226V43.6825H45.1373V44.775H48.0854V45.8592H43.7612V40.4424H48.002V41.5266Z" fill="#191919"/>
<path d="M52.7832 45.8592L51.9784 44.333H50.8942V45.8592H49.5181V40.4424H51.9409C52.6581 40.4424 53.2127 40.6071 53.6047 40.9344C53.9967 41.2628 54.1927 41.7288 54.1927 42.3314C54.1927 43.1654 53.8643 43.745 53.2086 44.0703L54.347 45.8592H52.7832ZM50.8942 43.2529H51.9409C52.238 43.2529 52.4684 43.1779 52.6331 43.0278C52.7999 42.8777 52.8833 42.6608 52.8833 42.3773C52.8833 42.0999 52.7999 41.8883 52.6331 41.7434C52.4684 41.5996 52.238 41.5266 51.9409 41.5266H50.8942V43.2529Z" fill="#191919"/>
<path d="M32.2439 50.5337H29.6043V51.7847H32.0354V52.8688H29.6043V54.8663H28.2282V49.4495H32.2439V50.5337Z" fill="#191919"/>
<path d="M36.0119 49.4036C36.8542 49.4036 37.5527 49.6652 38.1094 50.1875C38.6682 50.7109 38.9476 51.3655 38.9476 52.1516C38.9476 52.9418 38.6661 53.6017 38.1052 54.1323C37.5465 54.664 36.848 54.9288 36.0119 54.9288C35.1748 54.9288 34.4784 54.665 33.9227 54.1365C33.366 53.6059 33.0887 52.9439 33.0887 52.1516C33.0887 51.3624 33.366 50.7077 33.9227 50.1875C34.4784 49.6652 35.1748 49.4036 36.0119 49.4036ZM36.0286 50.5545C35.6053 50.5545 35.2446 50.7088 34.9444 51.0173C34.6441 51.3238 34.494 51.7044 34.494 52.1599C34.494 52.6134 34.6441 52.996 34.9444 53.3067C35.2467 53.6184 35.6074 53.7737 36.0244 53.7737C36.4435 53.7737 36.8 53.6184 37.0919 53.3067C37.3838 52.996 37.5298 52.6134 37.5298 52.1599C37.5298 51.7044 37.3838 51.3238 37.0919 51.0173C36.8 50.7088 36.4456 50.5545 36.0286 50.5545Z" fill="#191919"/>
<path d="M42.7825 49.4036C43.6249 49.4036 44.3233 49.6652 44.88 50.1875C45.4388 50.7109 45.7182 51.3655 45.7182 52.1516C45.7182 52.9418 45.4367 53.6017 44.8759 54.1323C44.3171 54.664 43.6186 54.9288 42.7825 54.9288C41.9454 54.9288 41.249 54.665 40.6934 54.1365C40.1367 53.6059 39.8594 52.9439 39.8594 52.1516C39.8594 51.3624 40.1367 50.7077 40.6934 50.1875C41.249 49.6652 41.9454 49.4036 42.7825 49.4036ZM42.7992 50.5545C42.376 50.5545 42.0153 50.7088 41.715 51.0173C41.4148 51.3238 41.2647 51.7044 41.2647 52.1599C41.2647 52.6134 41.4148 52.996 41.715 53.3067C42.0173 53.6184 42.378 53.7737 42.795 53.7737C43.2141 53.7737 43.5707 53.6184 43.8626 53.3067C44.1545 52.996 44.3004 52.6134 44.3004 52.1599C44.3004 51.7044 44.1545 51.3238 43.8626 51.0173C43.5707 50.7088 43.2162 50.5545 42.7992 50.5545Z" fill="#191919"/>
<path d="M46.9841 49.4495H49.3151C50.1658 49.4495 50.858 49.6997 51.3917 50.2001C51.9255 50.7005 52.1924 51.3531 52.1924 52.1558C52.1924 52.9564 51.9213 53.609 51.3792 54.1115C50.8371 54.615 50.1303 54.8663 49.2609 54.8663H46.9841V49.4495ZM48.3602 50.5462V53.7654H49.3443C49.7665 53.7654 50.1126 53.6184 50.3826 53.3234C50.6547 53.0263 50.7913 52.6416 50.7913 52.1683C50.7913 51.6929 50.6495 51.3041 50.3659 51.0007C50.0824 50.6984 49.7206 50.5462 49.2817 50.5462H48.3602Z" fill="#191919"/>
<path d="M32.7638 59.5012C33.0557 59.5012 33.3164 59.5784 33.5478 59.7306L33.3935 60.0642C33.1652 59.9255 32.9452 59.8557 32.7347 59.8557C32.6231 59.8557 32.5345 59.8765 32.4678 59.9182C32.4031 59.9578 32.3719 60.0141 32.3719 60.0892C32.3719 60.1642 32.4011 60.2289 32.4594 60.281C32.5199 60.331 32.595 60.3686 32.6846 60.3936C32.7732 60.4186 32.8702 60.4509 32.9765 60.4895C33.0818 60.526 33.1788 60.5646 33.2684 60.6063C33.357 60.648 33.431 60.7136 33.4894 60.8023C33.5478 60.8919 33.577 60.9982 33.577 61.1233C33.577 61.3214 33.4978 61.4778 33.3393 61.5945C33.1829 61.7113 32.9817 61.7697 32.7347 61.7697C32.5616 61.7697 32.3948 61.7384 32.2343 61.6738C32.0758 61.6102 31.9361 61.5237 31.8173 61.4152L31.9799 61.0858C32.0935 61.1921 32.2176 61.2735 32.351 61.3318C32.4865 61.3881 32.6158 61.4152 32.7388 61.4152C32.8723 61.4152 32.9744 61.3923 33.0474 61.3444C33.1225 61.2943 33.16 61.2276 33.16 61.1442C33.16 61.067 33.1287 61.0014 33.0683 60.9482C33.0099 60.8961 32.9348 60.8585 32.8431 60.8356C32.7534 60.8106 32.6565 60.7804 32.5512 60.7439C32.448 60.7084 32.351 60.6709 32.2593 60.6313C32.1696 60.5927 32.0946 60.5302 32.0341 60.4436C31.9757 60.355 31.9465 60.2476 31.9465 60.1225C31.9465 59.9339 32.0216 59.7837 32.1717 59.6722C32.3218 59.5586 32.5189 59.5012 32.7638 59.5012Z" fill="#191919"/>
<path d="M35.8471 59.8556H34.6211V60.4603H35.7178V60.798H34.6211V61.4194H35.8846V61.7571H34.2458V59.5137H35.8471V59.8556Z" fill="#191919"/>
<path d="M36.9465 61.7571H36.5712V59.5137H36.9465V61.7571Z" fill="#191919"/>
<path d="M39.2925 59.8556H38.5794V61.7571H38.2041V59.8556H37.4952V59.5137H39.2925V59.8556Z" fill="#191919"/>
<path d="M41.4543 61.7571H41.0749V59.8514H40.637V59.5137H41.4543V61.7571Z" fill="#191919"/>
<path d="M42.9264 61.7739C42.6814 61.7739 42.4594 61.7176 42.2592 61.6029L42.4052 61.3193C42.549 61.4142 42.7148 61.4611 42.9014 61.4611C43.112 61.4611 43.2704 61.3892 43.3768 61.2443C43.4821 61.0973 43.5321 60.8982 43.5269 60.648C43.407 60.8596 43.2027 60.9649 42.9139 60.9649C42.6887 60.9649 42.5115 60.9013 42.3843 60.7731C42.2561 60.6428 42.1925 60.4687 42.1925 60.2518C42.1925 60.0214 42.2634 59.839 42.4052 59.7055C42.549 59.57 42.7409 59.5012 42.9806 59.5012C43.2642 59.5012 43.4862 59.5971 43.6478 59.7889C43.8115 59.9808 43.8939 60.2476 43.8939 60.5896C43.8939 60.9482 43.8063 61.2359 43.6311 61.4528C43.456 61.6675 43.2204 61.7739 42.9264 61.7739ZM42.9848 60.6688C43.1318 60.6688 43.2486 60.6292 43.3351 60.5479C43.4237 60.4645 43.4664 60.3634 43.4643 60.2435C43.4664 60.1351 43.4279 60.0391 43.3476 59.9557C43.2663 59.8703 43.1516 59.8265 43.0015 59.8265C42.8618 59.8265 42.7513 59.864 42.6679 59.9391C42.5866 60.0141 42.547 60.1205 42.547 60.256C42.547 60.3842 42.5855 60.4853 42.6637 60.5604C42.7409 60.6334 42.8482 60.6688 42.9848 60.6688Z" fill="#191919"/>
<path d="M45.1195 61.7739C44.8746 61.7739 44.6525 61.7176 44.4523 61.6029L44.5983 61.3193C44.7422 61.4142 44.9079 61.4611 45.0945 61.4611C45.3051 61.4611 45.4636 61.3892 45.5699 61.2443C45.6752 61.0973 45.7252 60.8982 45.72 60.648C45.6001 60.8596 45.3958 60.9649 45.107 60.9649C44.8818 60.9649 44.7046 60.9013 44.5774 60.7731C44.4492 60.6428 44.3856 60.4687 44.3856 60.2518C44.3856 60.0214 44.4565 59.839 44.5983 59.7055C44.7422 59.57 44.934 59.5012 45.1737 59.5012C45.4573 59.5012 45.6794 59.5971 45.8409 59.7889C46.0046 59.9808 46.087 60.2476 46.087 60.5896C46.087 60.9482 45.9994 61.2359 45.8243 61.4528C45.6491 61.6675 45.4135 61.7739 45.1195 61.7739ZM45.1779 60.6688C45.3249 60.6688 45.4417 60.6292 45.5282 60.5479C45.6168 60.4645 45.6595 60.3634 45.6575 60.2435C45.6595 60.1351 45.621 60.0391 45.5407 59.9557C45.4594 59.8703 45.3447 59.8265 45.1946 59.8265C45.0549 59.8265 44.9444 59.864 44.861 59.9391C44.7797 60.0141 44.7401 60.1205 44.7401 60.256C44.7401 60.3842 44.7786 60.4853 44.8568 60.5604C44.934 60.6334 45.0413 60.6688 45.1779 60.6688Z" fill="#191919"/>
<path d="M47.3675 59.5012C47.5813 59.5012 47.7533 59.5533 47.8846 59.6555C48.0149 59.7556 48.0806 59.8922 48.0806 60.0642C48.0806 60.2591 47.944 60.5041 47.672 60.7981L47.0882 61.4194H48.1849V61.7572H46.5919V61.482L47.4176 60.5938C47.5979 60.4082 47.6886 60.2497 47.6886 60.1184C47.6886 60.0298 47.6553 59.9599 47.5886 59.9099C47.5218 59.8578 47.4301 59.8306 47.3133 59.8306C47.1101 59.8306 46.9057 59.9245 46.7004 60.11L46.5502 59.8181C46.814 59.6076 47.0861 59.5012 47.3675 59.5012Z" fill="#191919"/>
</svg>
