<svg width="92" height="80" viewBox="0 0 92 80" fill="none" xmlns="http://www.w3.org/2000/svg">
<path d="M2.52516 79.896H0.279358V71.0732H2.52516V79.896Z" fill="#191919"/>
<path d="M15.3274 79.896H13.3458L9.2883 74.4702V79.896H7.18404V71.0732H9.16563L13.2326 76.5179V71.0732H15.3274V79.896Z" fill="#191919"/>
<path d="M35.4966 79.8962H33.515L33.5056 74.1685L31.3919 79.0186H29.9293L27.8156 74.1685V79.8962H25.8057V71.064H28.2685L30.6559 76.3199L33.0527 71.064H35.4966V79.8962Z" fill="#191919"/>
<path d="M44.3575 70.998C45.7211 70.998 46.8581 71.4274 47.764 72.2814C48.6746 73.1306 49.1322 74.1945 49.1322 75.4708C49.1322 76.7612 48.6746 77.8392 47.764 78.7074C46.851 79.5708 45.7116 80.0001 44.3481 80.0001C42.9893 80.0001 41.857 79.5708 40.9511 78.7074C40.0452 77.8463 39.5923 76.7682 39.5923 75.4708C39.5923 74.1875 40.0452 73.1212 40.9511 72.2719C41.857 71.4227 42.9917 70.998 44.3575 70.998ZM44.3764 72.8758C43.6899 72.8758 43.1025 73.1283 42.6119 73.6307C42.1259 74.1285 41.8853 74.7489 41.8853 75.4896C41.8853 76.2257 42.1306 76.8484 42.6213 77.358C43.112 77.8675 43.697 78.1223 44.3764 78.1223C45.0558 78.1223 45.6314 77.8675 46.1032 77.358C46.5797 76.8484 46.8204 76.2257 46.8204 75.4896C46.8204 74.7489 46.5797 74.1285 46.1032 73.6307C45.6314 73.1283 45.0558 72.8758 44.3764 72.8758Z" fill="#191919"/>
<path d="M59.954 72.8757H57.293V79.8962H55.0472V72.8757H52.4146V71.064H59.954V72.8757Z" fill="#191919"/>
<path d="M66.0489 79.896H63.8031V71.0732H66.0489V79.896Z" fill="#191919"/>
<path d="M74.8972 70.998C76.2607 70.998 77.3978 71.4274 78.3037 72.2814C79.2142 73.1306 79.6719 74.1945 79.6719 75.4708C79.6719 76.7612 79.2142 77.8392 78.3037 78.7074C77.3907 79.5708 76.2513 80.0001 74.8878 80.0001C73.529 80.0001 72.3966 79.5708 71.4908 78.7074C70.5849 77.8463 70.132 76.7682 70.132 75.4708C70.132 74.1875 70.5849 73.1212 71.4908 72.2719C72.3966 71.4227 73.5313 70.998 74.8972 70.998ZM74.9161 72.8758C74.2296 72.8758 73.6422 73.1283 73.1515 73.6307C72.6656 74.1285 72.4249 74.7489 72.4249 75.4896C72.4249 76.2257 72.6703 76.8484 73.161 77.358C73.6516 77.8675 74.2367 78.1223 74.9161 78.1223C75.5955 78.1223 76.1711 77.8675 76.6429 77.358C77.1194 76.8484 77.36 76.2257 77.36 75.4896C77.36 74.7489 77.1194 74.1285 76.6429 73.6307C76.1711 73.1283 75.5955 72.8758 74.9161 72.8758Z" fill="#191919"/>
<path d="M91.8908 79.896H89.9092L85.8517 74.4702V79.896H83.7474V71.0732H85.729L89.796 76.5179V71.0732H91.8908V79.896Z" fill="#191919"/>
<path d="M65.0446 56.1119H18.0763V9.10352H65.0446V56.1119ZM18.8264 55.3618H64.2944V9.85369H18.8264V55.3618Z" fill="#191919"/>
<path d="M69.2906 51.361H22.3246V4.35254H69.2906V51.361ZM23.0725 50.6108H68.5404V5.10271H23.0725V50.6108Z" fill="#191919"/>
<path d="M73.7868 47.0108H26.8208V0H73.7868V47.0108ZM27.571 46.2606H73.039V0.750172H27.571V46.2606Z" fill="#191919"/>
<path d="M33.1407 30.613H43.5275V41.0022H33.1407V30.613Z" fill="#191919"/>
</svg>
