<svg width="93" height="80" viewBox="0 0 93 80" fill="none" xmlns="http://www.w3.org/2000/svg">
<path d="M46.2149 1.19374C34.9269 1.19374 25.7432 10.3774 25.7432 21.6654C25.7432 32.9534 34.9269 42.1351 46.2149 42.1351C57.5029 42.1351 66.6846 32.9534 66.6846 21.6654C66.6846 10.3774 57.5029 1.19374 46.2149 1.19374ZM46.2149 43.3308C34.2696 43.3308 24.5495 33.6107 24.5495 21.6654C24.5495 9.72014 34.2696 0 46.2149 0C58.1602 0 67.8803 9.72014 67.8803 21.6654C67.8803 33.6107 58.1602 43.3308 46.2149 43.3308Z" fill="#191919"/>
<path d="M46.215 3.82877C36.38 3.82877 28.3782 11.8306 28.3782 21.6655C28.3782 31.5005 36.38 39.5023 46.215 39.5023C56.0499 39.5023 64.0517 31.5005 64.0517 21.6655C64.0517 11.8306 56.0499 3.82877 46.215 3.82877ZM46.215 40.696C35.7208 40.696 27.1825 32.1597 27.1825 21.6655C27.1825 11.1713 35.7208 2.63306 46.215 2.63306C56.7091 2.63306 65.2454 11.1713 65.2454 21.6655C65.2454 32.1597 56.7091 40.696 46.215 40.696Z" fill="#191919"/>
<path d="M46.2148 6.46156C37.8309 6.46156 31.011 13.2815 31.011 21.6654C31.011 30.0492 37.8309 36.8692 46.2148 36.8692C54.5987 36.8692 61.4186 30.0492 61.4186 21.6654C61.4186 13.2815 54.5987 6.46156 46.2148 6.46156ZM46.2148 38.0629C37.1737 38.0629 29.8173 30.7065 29.8173 21.6654C29.8173 12.6242 37.1737 5.26782 46.2148 5.26782C55.2559 5.26782 62.6123 12.6242 62.6123 21.6654C62.6123 30.7065 55.2559 38.0629 46.2148 38.0629Z" fill="#191919"/>
<path d="M46.2149 9.09461C39.2841 9.09461 33.644 14.7347 33.644 21.6655C33.644 28.5963 39.2841 34.2363 46.2149 34.2363C53.1457 34.2363 58.7857 28.5963 58.7857 21.6655C58.7857 14.7347 53.1457 9.09461 46.2149 9.09461ZM46.2149 35.43C38.6249 35.43 32.4503 29.2555 32.4503 21.6655C32.4503 14.0754 38.6249 7.90088 46.2149 7.90088C53.8049 7.90088 59.9795 14.0754 59.9795 21.6655C59.9795 29.2555 53.8049 35.43 46.2149 35.43Z" fill="#191919"/>
<path d="M46.2149 11.7294C40.7352 11.7294 36.279 16.1856 36.279 21.6653C36.279 27.145 40.7352 31.6012 46.2149 31.6012C51.6946 31.6012 56.1509 27.145 56.1509 21.6653C56.1509 16.1856 51.6946 11.7294 46.2149 11.7294ZM46.2149 32.797C40.078 32.797 35.0833 27.8023 35.0833 21.6653C35.0833 15.5264 40.078 10.5337 46.2149 10.5337C52.3519 10.5337 57.3466 15.5264 57.3466 21.6653C57.3466 27.8023 52.3519 32.797 46.2149 32.797Z" fill="#191919"/>
<path d="M46.215 14.3625C42.1884 14.3625 38.912 17.6388 38.912 21.6654C38.912 25.6921 42.1884 28.9684 46.215 28.9684C50.2416 28.9684 53.518 25.6921 53.518 21.6654C53.518 17.6388 50.2416 14.3625 46.215 14.3625ZM46.215 30.1621C41.5291 30.1621 37.7183 26.3513 37.7183 21.6654C37.7183 16.9796 41.5291 13.1667 46.215 13.1667C50.9009 13.1667 54.7117 16.9796 54.7117 21.6654C54.7117 26.3513 50.9009 30.1621 46.215 30.1621Z" fill="#191919"/>
<path d="M46.2151 16.9955C43.6395 16.9955 41.5451 19.09 41.5451 21.6655C41.5451 24.2391 43.6395 26.3355 46.2151 26.3355C48.7906 26.3355 50.8851 24.2391 50.8851 21.6655C50.8851 19.09 48.7906 16.9955 46.2151 16.9955ZM46.2151 27.5293C42.9823 27.5293 40.3513 24.8983 40.3513 21.6655C40.3513 18.4327 42.9823 15.8018 46.2151 15.8018C49.4479 15.8018 52.0788 18.4327 52.0788 21.6655C52.0788 24.8983 49.4479 27.5293 46.2151 27.5293Z" fill="#191919"/>
<path d="M46.2152 19.6283C45.0927 19.6283 44.1781 20.5429 44.1781 21.6654C44.1781 22.7878 45.0927 23.7005 46.2152 23.7005C47.3376 23.7005 48.2522 22.7878 48.2522 21.6654C48.2522 20.5429 47.3376 19.6283 46.2152 19.6283ZM46.2152 24.8962C44.4335 24.8962 42.9843 23.4471 42.9843 21.6654C42.9843 19.8837 44.4335 18.4346 46.2152 18.4346C47.9968 18.4346 49.446 19.8837 49.446 21.6654C49.446 23.4471 47.9968 24.8962 46.2152 24.8962Z" fill="#191919"/>
<path d="M6.06395 65.4805C3.95759 65.4805 2.40752 65.0489 1.41571 64.1818C0.532777 63.4176 0.0932922 62.3724 0.0932922 61.046C0.0932922 59.7216 0.532777 58.6744 1.41571 57.9023C2.40752 57.0431 3.95759 56.6116 6.06395 56.6116C7.29926 56.6116 8.32076 56.7541 9.12847 57.0392C9.93617 57.3203 10.5617 57.7043 11.0052 58.1953C11.4526 58.6863 11.7515 59.2485 11.9 59.882H8.13864C7.7625 59.2227 7.0716 58.8921 6.06395 58.8921C5.19686 58.8921 4.56139 59.1416 4.15556 59.6365C3.83287 60.0324 3.67252 60.5036 3.67252 61.046C3.67252 61.5904 3.83287 62.0596 4.15556 62.4555C4.56139 62.9524 5.19686 63.1999 6.06395 63.1999C7.0716 63.1999 7.7625 62.8673 8.13864 62.2021H11.9C11.7515 62.8416 11.4526 63.4058 11.0052 63.8967C10.5617 64.3877 9.93617 64.7757 9.12847 65.0608C8.32076 65.3399 7.29926 65.4805 6.06395 65.4805Z" fill="#191919"/>
<path d="M24.9517 65.2983H21.5784C21.42 65.0825 21.3091 64.8073 21.2458 64.4748C21.1923 64.2214 21.1112 63.9719 21.0003 63.7225C20.8894 63.475 20.6954 63.2691 20.4222 63.1048C20.153 62.9425 19.7511 62.8514 19.2186 62.8356H16.8984V65.2983H13.3192V56.7778H19.1315C20.5252 56.7778 21.6457 56.8808 22.4969 57.0867C23.3521 57.2925 23.9737 57.6212 24.3657 58.0686C24.7557 58.512 24.9517 59.094 24.9517 59.8107C24.9517 60.4085 24.8171 60.9114 24.5479 61.3231C24.2786 61.7309 23.851 62.0516 23.265 62.2892C23.8292 62.5228 24.1955 62.8019 24.3657 63.1286C24.534 63.4572 24.6369 63.8155 24.6745 64.2055C24.7161 64.5539 24.8092 64.9182 24.9517 65.2983ZM16.8984 60.7372L18.9415 60.7292C19.5116 60.7292 19.959 60.7055 20.2876 60.658C20.6143 60.6065 20.8538 60.5352 21.0082 60.4442C21.1666 60.3551 21.2656 60.2581 21.3091 60.1512C21.3566 60.0403 21.3804 59.9275 21.3804 59.8107C21.3804 59.6959 21.3566 59.581 21.3091 59.4702C21.2656 59.3593 21.1666 59.2603 21.0082 59.1693C20.8538 59.0802 20.6143 59.0109 20.2876 58.9634C19.959 58.9119 19.5116 58.8842 18.9415 58.8842H16.8984V60.7372Z" fill="#191919"/>
<path d="M36.6352 65.2983H26.3726V56.7778H36.168V58.8842H29.9518V60.2224H35.2019V61.8616H29.9518V63.1919H36.6352V65.2983Z" fill="#191919"/>
<path d="M51.4214 65.2983H47.7947L46.9949 63.9046H41.6181L40.8183 65.2983H37.1916L42.6475 56.7778H45.9654L51.4214 65.2983ZM45.7912 61.7903L44.3105 59.2089L42.8217 61.7903H45.7912Z" fill="#191919"/>
<path d="M58.7689 65.2983H55.1976V58.8842H51.8559V56.7778H62.1105V58.8842H58.7689V65.2983Z" fill="#191919"/>
<path d="M66.987 65.2983H63.4077V56.7778H66.987V65.2983Z" fill="#191919"/>
<path d="M76.1185 65.2983H72.7927L68.0178 56.7778H71.6445L74.4556 62.8673L77.2667 56.7778H80.8935L76.1185 65.2983Z" fill="#191919"/>
<path d="M92.1849 65.2983H81.9223V56.7778H91.7177V58.8842H85.5015V60.2224H90.7516V61.8616H85.5015V63.1919H92.1849V65.2983Z" fill="#191919"/>
<path d="M18.6646 80.0001C17.5124 80.0001 16.5839 79.8754 15.8772 79.6279C15.1744 79.3805 14.6379 79.04 14.2697 78.6064C13.8995 78.1748 13.6521 77.676 13.5254 77.1098H17.3263C17.6054 77.5117 18.0509 77.7116 18.6646 77.7116C19.2763 77.7116 19.7257 77.5117 20.0107 77.1098C20.0305 77.0682 20.0424 77.0306 20.0424 76.9989C20.0424 76.894 19.8999 76.8148 19.6148 76.7614C19.3337 76.7099 18.912 76.6703 18.3478 76.6426C17.6391 76.6109 16.8947 76.5357 16.1148 76.4129C14.3766 76.1437 13.5095 75.4449 13.5095 74.3145C13.5095 74.2195 13.5135 74.1205 13.5254 74.0136C13.6521 73.4494 13.8995 72.9505 14.2697 72.517C14.6379 72.0854 15.1744 71.7449 15.8772 71.4955C16.5839 71.248 17.5124 71.1233 18.6646 71.1233C19.8147 71.1233 20.7412 71.248 21.444 71.4955C22.1507 71.7449 22.6892 72.0854 23.0594 72.517C23.4276 72.9505 23.6771 73.4494 23.8038 74.0136H20.0107C19.7257 73.6137 19.2763 73.4118 18.6646 73.4118C18.0509 73.4118 17.6054 73.6137 17.3263 74.0136C17.3045 74.0453 17.2946 74.075 17.2946 74.1007C17.2946 74.1957 17.4293 74.267 17.6985 74.3145C17.9717 74.362 18.3735 74.4016 18.9021 74.4333C19.4287 74.465 19.9909 74.5184 20.5888 74.5917C21.1847 74.6609 21.7449 74.7817 22.2675 74.9559C22.7902 75.1301 23.196 75.3914 23.487 75.7399C23.7186 76.0051 23.8354 76.3397 23.8354 76.7455C23.8354 76.8623 23.8236 76.9831 23.8038 77.1098C23.6771 77.676 23.4276 78.1748 23.0594 78.6064C22.6892 79.04 22.1507 79.3805 21.444 79.6279C20.7412 79.8754 19.8147 80.0001 18.6646 80.0001Z" fill="#191919"/>
<path d="M31.5701 79.8178H27.9988V73.4037H24.6571V71.2974H34.9117V73.4037H31.5701V79.8178Z" fill="#191919"/>
<path d="M41.2534 80C39.1728 80 37.7098 79.5704 36.8665 78.7092C36.1538 77.9807 35.7975 76.9335 35.7975 75.5655V71.2974H39.3688V75.5655C39.3688 76.1574 39.4678 76.6266 39.6697 76.975C39.9587 77.466 40.4873 77.7115 41.2534 77.7115C42.0235 77.7115 42.5521 77.466 42.8372 76.975C43.0371 76.6167 43.1381 76.1475 43.1381 75.5655V71.2974H46.7173V75.613C46.7173 76.9493 46.3629 77.9807 45.6562 78.7092C44.801 79.5704 43.3321 80 41.2534 80Z" fill="#191919"/>
<path d="M53.8956 79.8178H48.1942V71.2974H53.8956C56.2277 71.2974 57.9045 71.622 58.924 72.2714C59.7475 72.7999 60.2167 73.5185 60.3335 74.4252C60.385 74.8172 60.4127 75.1933 60.4127 75.5576C60.4127 75.9179 60.385 76.294 60.3335 76.69C60.286 77.0859 60.1533 77.4699 59.9376 77.8382C59.7257 78.2084 59.3872 78.5409 58.924 78.8359C58.4588 79.1329 57.8193 79.3704 57.0077 79.5486C56.2 79.7287 55.1626 79.8178 53.8956 79.8178ZM53.5551 77.7115C55.3764 77.7115 56.4058 77.2522 56.6434 76.3336C56.7068 76.0763 56.7384 75.8169 56.7384 75.5576C56.7384 75.3002 56.7028 75.0429 56.6355 74.7895C56.5721 74.5321 56.4336 74.2985 56.2237 74.0926C56.0119 73.8828 55.6932 73.7165 55.2656 73.5938C54.8419 73.4671 54.2718 73.4037 53.5551 73.4037H51.7734V77.7115H53.5551Z" fill="#191919"/>
<path d="M65.4086 79.8178H61.8294V71.2974H65.4086V79.8178Z" fill="#191919"/>
<path d="M72.7979 80.0001C70.6915 80.0001 69.1415 79.5685 68.1497 78.7014C67.2667 77.9313 66.8272 76.8841 66.8272 75.5577C66.8272 74.2393 67.2667 73.194 68.1497 72.4219C69.1415 71.5568 70.6915 71.1233 72.7979 71.1233C74.9043 71.1233 76.4524 71.5568 77.4461 72.4219C78.3271 73.194 78.7686 74.2393 78.7686 75.5577C78.7686 76.8841 78.3271 77.9313 77.4461 78.7014C76.4524 79.5685 74.9043 80.0001 72.7979 80.0001ZM72.7979 77.7116C73.6571 77.7116 74.2906 77.4661 74.6984 76.9752C75.0191 76.5753 75.1814 76.1021 75.1814 75.5577C75.1814 75.0153 75.0191 74.5441 74.6984 74.1482C74.2906 73.6533 73.6571 73.4039 72.7979 73.4039C71.9308 73.4039 71.2953 73.6533 70.8895 74.1482C70.5668 74.5441 70.4065 75.0153 70.4065 75.5577C70.4065 76.1021 70.5668 76.5753 70.8895 76.9752C71.2953 77.4661 71.9308 77.7116 72.7979 77.7116Z" fill="#191919"/>
</svg>
